# xmcd CD database file
#
# Track frame offsets:
#	150
#	13404
#	28152
#	41460
#	57644
#	71370
#	88025
#	100032
#	115245
#	128879
#
# Disc length: 1928 seconds
#
# Revision: 1
# Processed by: cddbd v1.4PL0 Copyright (c) Steve Scherf et al.
# Submitted via: CDex 1.50
#
DISCID=8707860a
DTITLE=Roy Clark - Back To The Country
DYEAR=1981
DGENRE=Country
TTITLE0=I Ain't Got Nobody
TTITLE1=Loves Takes Two
TTITLE2=Come Sundown
TTITLE3=You Better Be Right By Your Woman
TTITLE4=Play Me A Little Traveling Music
TTITLE5=She Can't Give It Away
TTITLE6=Dig A Little Deeper In The Well
TTITLE7=The World Needs A Melody
TTITLE8=The Lady Is A Woman
TTITLE9=Roll On Sweet Mississippi
EXTD=YEAR: 1981
EXTT0=
EXTT1=
EXTT2=
EXTT3=
EXTT4=
EXTT5=
EXTT6=
EXTT7=
EXTT8=
EXTT9=
PLAYORDER=
